<?xml version="1.0" standalone="no"?>
<!DOCTYPE svg PUBLIC "-//W3C//DTD SVG 20010904//EN"
 "http://www.w3.org/TR/2001/REC-SVG-20010904/DTD/svg10.dtd">
<svg version="1.0" xmlns="http://www.w3.org/2000/svg"
 width="1024.000000pt" height="767.000000pt" viewBox="0 0 1024.000000 767.000000"
 preserveAspectRatio="xMidYMid meet">

<g transform="translate(0.000000,767.000000) scale(0.100000,-0.100000)"
fill="#000000" stroke="none">
<path d="M0 3835 l0 -3835 5120 0 5120 0 0 3835 0 3835 -5120 0 -5120 0 0
-3835z m7766 2874 c52 -48 53 -58 60 -366 l6 -288 -26 -55 c-45 -96 -34 -214
29 -296 14 -18 25 -38 25 -44 0 -5 -31 -39 -68 -75 -76 -71 -124 -150 -141
-233 -16 -77 -14 -119 6 -126 25 -10 33 5 44 78 18 131 103 248 220 304 l58
28 -52 52 c-29 29 -57 49 -62 45 -4 -5 -5 -3 -1 4 4 7 0 25 -7 40 -25 49 -30
108 -13 166 27 93 122 162 175 128 8 -5 66 -60 129 -123 173 -171 206 -231
218 -405 12 -179 -32 -302 -152 -424 -30 -31 -54 -60 -52 -65 2 -5 -1 -10 -5
-11 -16 -2 -68 -58 -98 -104 -18 -29 -34 -72 -42 -115 l-12 -69 -185 -6 c-102
-4 -260 -7 -352 -8 -189 -1 -168 -11 -183 84 -4 21 -16 57 -27 80 -24 48 -107
137 -121 128 -6 -4 -7 -1 -3 6 5 8 -5 26 -27 47 -19 19 -50 63 -68 97 l-34 62
2 165 c2 241 39 734 58 769 21 41 74 58 129 40 22 -7 45 -12 49 -11 5 2 6 -2
2 -8 -4 -6 -1 -18 6 -26 14 -17 14 -66 -2 -372 -12 -239 -10 -262 25 -249 21
8 22 19 49 537 18 347 27 471 38 488 31 50 111 49 145 -3 15 -23 16 -55 5
-403 -14 -481 -14 -459 5 -466 38 -14 41 6 48 301 3 159 9 375 13 482 6 187 7
194 31 223 24 28 29 30 79 26 38 -3 60 -11 79 -29z m-4991 -37 c58 -34 64 -62
80 -373 8 -156 17 -301 19 -321 5 -54 -12 -73 -58 -64 -37 7 -39 9 -111 159
-53 111 -84 162 -113 189 l-40 37 -4 123 c-2 68 0 139 4 158 5 19 10 42 12 50
1 8 4 16 6 17 3 1 25 13 50 28 51 29 100 28 155 -3z m1395 -364 c68 -47 69
-50 72 -288 l3 -215 -57 -6 c-90 -10 -119 -36 -133 -122 -5 -29 -10 -37 -23
-35 -20 4 -20 27 1 83 12 30 16 88 17 227 1 201 -4 225 -53 284 -29 34 -26 43
23 73 47 28 107 28 150 -1z m1780 -32 c59 -39 66 -74 69 -356 3 -265 -1 -288
-61 -333 -31 -24 -154 -55 -143 -36 3 4 -7 10 -21 13 -28 7 -28 4 -5 106 6 25
10 135 11 245 0 184 -2 203 -21 240 -11 22 -27 45 -36 52 -46 36 43 109 125
100 23 -3 60 -16 82 -31z m-1535 -38 c45 -30 55 -61 61 -183 2 -55 6 -128 9
-162 3 -46 0 -66 -10 -77 -19 -18 -158 -21 -173 -3 -14 17 -22 445 -8 451 23
11 89 -3 121 -26z m-1876 -2 c11 -10 24 -15 30 -12 5 4 13 1 17 -5 4 -8 3 -9
-4 -5 -17 10 -15 -2 7 -32 19 -28 121 -239 121 -250 0 -4 -21 -29 -45 -56 -59
-64 -80 -133 -70 -225 7 -66 8 -98 4 -126 -2 -11 -6 -12 -16 -4 -7 6 -20 9
-28 5 -11 -4 -14 -2 -9 6 5 8 2 9 -9 5 -9 -3 -16 -3 -15 1 2 4 -9 24 -24 45
-17 26 -28 34 -32 25 -3 -7 -4 -4 -1 8 3 11 -6 46 -19 77 -24 54 -25 61 -19
205 7 174 3 204 -38 266 -33 50 -33 71 3 86 35 15 125 6 147 -14z m1381 9 c16
-8 42 -32 57 -52 l28 -37 0 -200 c0 -170 -3 -206 -17 -235 -10 -18 -15 -39
-11 -45 3 -6 2 -8 -2 -3 -5 4 -16 0 -26 -9 -40 -36 -169 -48 -199 -18 -5 5 -3
31 5 62 8 28 17 134 21 235 6 169 5 186 -14 234 l-21 51 32 16 c41 20 110 20
147 1z m4043 -6 c39 -20 77 -62 77 -85 0 -21 -5 -23 -42 -22 -24 1 -57 -2 -74
-6 l-31 -8 -7 56 c-4 31 -5 60 -1 66 8 13 51 13 78 -1z m-1780 -15 c33 -18 69
-58 75 -83 6 -31 21 -297 21 -387 1 -78 -2 -96 -22 -124 -41 -61 -123 -89
-195 -66 -22 7 -23 12 -16 44 4 21 9 168 10 327 1 160 3 293 3 298 2 14 92 7
124 -9z m-532 -6 c49 -16 97 -74 105 -124 3 -23 4 -127 2 -230 -4 -214 -12
-241 -76 -283 -44 -29 -124 -39 -177 -21 -35 11 -37 14 -31 44 20 94 27 179
29 336 2 156 0 179 -16 204 -23 35 -16 53 25 71 40 17 94 19 139 3z m-1970
-21 c60 -41 64 -58 52 -273 -8 -144 -15 -200 -28 -227 -9 -21 -22 -37 -27 -37
-5 0 -7 -4 -4 -8 7 -12 -108 -22 -149 -12 -24 6 -63 60 -71 97 -9 50 23 402
39 427 37 55 131 72 188 33z m-1379 -20 c9 -1 15 -4 13 -8 -3 -3 5 -15 17 -25
44 -40 49 -72 43 -267 -7 -226 -12 -272 -33 -311 -9 -17 -15 -34 -14 -39 1 -4
-4 -6 -10 -5 -7 2 -12 -1 -11 -7 1 -10 -6 -12 -92 -18 l-50 -4 8 126 c11 171
5 282 -17 315 -9 15 -21 24 -26 21 -6 -3 -7 1 -4 9 3 9 2 16 -3 16 -4 0 -20
11 -35 25 -23 21 -25 28 -18 61 19 83 83 129 165 119 28 -3 58 -7 67 -8z
m3107 -14 c14 -11 34 -36 45 -57 17 -35 18 -49 7 -234 -7 -108 -17 -211 -22
-229 -13 -41 -59 -80 -105 -89 -75 -14 -156 38 -169 109 -3 18 1 121 9 230 16
219 25 248 86 280 43 22 111 18 149 -10z m-3359 -205 c77 -40 83 -64 71 -277
-6 -105 -16 -191 -23 -204 -7 -12 -11 -26 -9 -32 1 -5 -1 -7 -5 -3 -3 4 -18
-1 -31 -12 -39 -31 -85 -35 -136 -12 -25 11 -49 17 -54 14 -4 -4 -5 -3 -1 1 4
5 -3 27 -14 50 -21 39 -21 45 -10 220 8 132 15 185 27 203 9 14 13 30 9 36 -4
6 -3 8 3 5 6 -4 27 3 49 13 49 26 70 25 124 -2z m4443 -9 c52 -24 56 -44 63
-350 5 -216 4 -294 -5 -322 -7 -21 -38 -65 -68 -97 -33 -36 -52 -64 -47 -71 4
-7 3 -9 -3 -6 -15 10 -159 -148 -184 -202 -18 -38 -23 -62 -28 -132 -1 -12
-155 -19 -454 -21 -328 -2 -317 -4 -317 59 0 73 -38 139 -141 250 -66 72 -111
130 -132 173 -31 62 -32 70 -32 182 0 143 4 149 74 119 60 -26 113 -26 166 -2
39 17 41 17 84 -2 60 -26 143 -26 205 2 48 21 51 21 85 4 48 -24 154 -24 200
1 24 13 36 15 44 7 8 -8 8 -16 2 -25 -51 -67 -86 -133 -100 -186 -18 -71 -17
-125 4 -125 10 0 19 26 30 80 16 82 48 147 98 200 15 16 27 33 26 37 -2 4 8 3
21 -3 34 -16 128 6 167 38 59 50 70 88 70 243 0 77 4 138 8 136 4 -3 25 1 47
9 48 17 85 19 117 4z m-3623 -134 c60 -46 77 -55 64 -32 -5 8 -3 8 9 -2 9 -7
14 -17 12 -22 -7 -11 30 -30 40 -21 5 4 5 1 1 -5 -6 -12 5 -18 26 -14 5 0 7
-2 6 -6 -1 -5 13 -24 32 -43 18 -19 30 -28 25 -20 -5 9 -5 12 1 7 5 -5 9 -12
9 -15 1 -4 12 -27 25 -52 23 -41 25 -57 26 -182 1 -76 -3 -135 -7 -132 -5 3
-14 -7 -19 -21 -5 -14 -27 -46 -47 -71 -21 -25 -37 -50 -35 -56 1 -5 -1 -7 -6
-4 -11 7 -83 -66 -86 -88 -1 -9 -6 -16 -10 -15 -14 2 -67 -54 -93 -98 -14 -24
-27 -65 -30 -97 -3 -31 -12 -61 -20 -68 -10 -8 -110 -13 -348 -16 l-334 -5 -5
24 c-22 105 -29 128 -39 122 -6 -3 -7 -1 -3 6 4 6 0 24 -10 39 -32 49 -106
122 -118 115 -6 -3 -8 -3 -4 2 4 4 -6 23 -22 42 -53 60 -83 131 -88 210 -6 87
4 95 77 69 25 -9 60 -16 76 -15 42 0 100 23 98 37 -2 6 3 9 10 6 7 -2 24 7 37
21 20 21 32 25 82 25 68 0 141 32 173 76 32 44 45 54 62 47 12 -5 14 -3 8 8
-8 12 -6 12 8 0 9 -7 15 -17 12 -21 -8 -13 37 -52 82 -72 36 -16 43 -23 43
-47 0 -16 -7 -34 -15 -41 -9 -7 -14 -19 -11 -27 3 -8 2 -11 -4 -8 -5 3 -16 -8
-25 -24 -14 -28 -20 -61 -11 -61 2 0 11 -3 19 -6 10 -3 24 11 42 43 34 58 97
119 144 139 l34 14 -28 30 c-15 16 -32 27 -37 24 -5 -3 -7 -2 -6 3 1 4 -8 27
-20 50 -43 82 -39 171 11 244 48 72 97 73 187 4z m1701 -87 c25 -15 62 -45 82
-67 19 -21 37 -38 39 -36 2 2 4 -4 5 -13 1 -9 9 -42 18 -72 12 -41 15 -83 12
-165 -4 -124 -26 -186 -91 -259 -20 -21 -33 -43 -30 -48 3 -5 0 -7 -8 -6 -7 2
-12 -4 -10 -12 2 -8 0 -12 -4 -7 -10 9 -45 -23 -38 -35 3 -4 1 -7 -5 -6 -15 4
-93 -93 -87 -109 3 -8 2 -12 -3 -9 -12 8 -31 -48 -31 -90 0 -18 -3 -35 -7 -37
-5 -3 -165 -8 -358 -11 l-350 -7 -2 56 c-2 80 -38 144 -138 249 -51 53 -96
111 -112 145 -27 55 -28 60 -26 216 2 177 9 210 47 217 14 3 23 1 20 -3 -17
-28 115 -38 173 -14 32 14 41 14 67 1 59 -27 109 -29 175 -6 60 20 65 20 106
4 32 -12 51 -28 76 -66 18 -28 45 -58 61 -67 32 -18 35 -41 12 -76 -9 -13 -12
-30 -8 -36 4 -7 3 -9 -3 -6 -13 8 -29 -28 -43 -101 -13 -65 -9 -92 13 -92 14
0 27 40 27 81 0 40 44 131 85 177 l45 50 -40 6 c-29 4 -52 18 -81 47 -48 48
-59 74 -59 140 0 40 5 55 25 75 l26 26 187 -4 c182 -3 188 -4 233 -30z m-576
-68 c-3 -5 -12 -10 -18 -10 -7 0 -6 4 3 10 19 12 23 12 15 0z m283 -1474 l32
-8 0 -74 c0 -41 -3 -74 -7 -74 -5 0 -17 7 -27 15 -10 8 -23 12 -29 8 -6 -3 -7
-1 -3 5 8 14 -30 36 -46 26 -7 -4 -8 -3 -4 4 10 16 -36 26 -87 18 -69 -11
-107 -56 -107 -128 0 -39 29 -100 44 -91 6 3 8 3 4 -2 -11 -12 43 -77 59 -71
8 3 12 2 8 -3 -3 -5 28 -38 69 -73 40 -35 79 -73 85 -86 7 -14 16 -20 24 -16
6 4 9 4 5 0 -3 -4 5 -30 18 -57 34 -68 41 -135 19 -201 -21 -66 -57 -115 -101
-135 -18 -9 -32 -19 -30 -22 11 -16 -219 -15 -274 1 l-45 14 -5 80 c-4 70 -3
80 12 80 9 0 15 -3 12 -7 -2 -4 11 -20 28 -35 123 -103 278 -54 278 88 0 54
-15 102 -30 93 -5 -3 -7 0 -5 8 5 12 -23 42 -170 177 -27 25 -52 44 -57 42 -4
-1 -7 4 -6 10 2 7 -3 12 -10 10 -8 -1 -11 2 -8 7 4 5 0 16 -8 24 -21 21 -46
102 -46 150 0 94 49 175 127 212 65 31 170 35 281 11z m1467 -7 c100 -47 156
-182 159 -384 1 -83 -2 -109 -11 -107 -7 1 -13 -1 -13 -5 0 -5 -87 -7 -193 -5
l-193 3 7 -84 c10 -129 53 -258 81 -241 7 4 8 3 4 -4 -10 -17 39 -45 66 -37
18 5 20 4 8 -4 -12 -8 -6 -11 25 -10 48 1 111 22 108 37 -2 6 4 9 11 6 8 -3
24 4 35 15 12 12 23 21 26 21 3 0 5 -33 5 -74 0 -85 6 -80 -110 -96 -168 -23
-278 32 -343 172 -11 26 -25 44 -31 41 -5 -3 -6 -1 -2 5 3 5 -1 42 -9 82 -30
141 -15 399 30 503 8 21 13 43 9 49 -4 7 -3 8 4 4 6 -4 17 6 26 22 19 37 79
90 111 98 14 3 23 9 21 13 -7 11 138 -6 169 -20z m1407 -14 c23 -15 48 -46 64
-78 31 -60 31 -62 37 -559 l4 -308 -68 0 -69 0 0 36 0 36 -38 -33 c-21 -19
-37 -37 -36 -40 2 -3 -39 -5 -90 -5 -85 1 -95 3 -129 29 -21 16 -50 52 -64 80
-25 47 -28 62 -28 157 0 90 3 112 23 152 13 27 37 60 52 75 16 15 27 31 24 35
-3 5 -2 8 3 6 12 -3 83 34 79 41 -2 3 6 7 17 7 12 1 62 12 110 24 l88 23 -6
56 c-10 95 -16 122 -25 116 -4 -3 -6 5 -2 17 3 13 1 19 -5 15 -6 -4 -10 1 -9
11 0 10 -13 24 -34 35 -55 28 -126 9 -220 -59 -33 -23 -50 -30 -60 -24 -10 7
-11 10 -2 10 8 0 12 20 12 68 l0 67 58 18 c125 40 246 37 314 -8z m-3518 21
c40 -17 100 -76 116 -116 7 -17 17 -27 23 -23 5 3 7 1 3 -5 -3 -6 1 -37 9 -69
9 -32 19 -111 22 -175 l6 -118 -212 0 -211 0 4 -22 c3 -13 7 -53 11 -89 15
-177 80 -269 188 -269 45 0 110 27 101 42 -5 7 -3 8 5 4 7 -5 20 -1 29 6 40
35 42 32 42 -50 0 -56 -4 -79 -12 -79 -7 0 -50 -6 -96 -12 -66 -10 -95 -9
-140 1 -31 7 -66 11 -77 10 -13 -1 -16 1 -8 6 9 6 3 14 -20 27 -17 11 -36 18
-42 16 -5 -1 -7 1 -3 4 4 4 -5 26 -20 49 -66 97 -92 206 -92 384 0 248 67 420
185 473 48 22 142 25 189 5z m4129 -1 c14 -6 17 -20 17 -81 0 -41 -4 -74 -9
-74 -5 0 -22 11 -38 24 -73 60 -146 72 -204 33 -61 -41 -74 -99 -39 -172 11
-23 32 -53 47 -66 14 -13 23 -18 18 -10 -5 10 -4 12 4 7 6 -4 9 -11 6 -16 -7
-12 96 -100 109 -93 6 3 8 2 3 -2 -9 -11 53 -76 65 -69 5 3 7 2 6 -3 -1 -4 9
-28 24 -53 37 -63 51 -125 44 -188 -7 -56 -34 -119 -60 -141 -12 -10 -13 -17
-6 -26 8 -9 8 -15 0 -20 -6 -4 -10 -3 -9 2 4 21 -5 20 -52 -4 -42 -21 -67 -26
-133 -27 -45 0 -109 5 -143 13 l-63 14 0 82 c0 66 3 82 15 82 8 0 13 -3 10 -5
-8 -8 16 -32 26 -26 5 3 8 0 7 -6 -5 -23 83 -59 141 -60 50 0 57 3 93 40 22
24 39 52 40 68 4 65 -7 126 -22 117 -5 -3 -7 0 -4 8 6 17 -190 204 -209 199
-7 -2 -9 0 -5 4 4 4 -7 23 -24 42 -17 20 -42 60 -56 90 -21 46 -24 65 -19 118
3 39 13 76 26 97 11 19 19 37 16 40 -3 4 -2 5 1 2 4 -2 22 7 40 22 59 45 99
54 214 49 58 -2 113 -7 123 -11z m-5088 -190 c44 -196 107 -451 123 -495 9
-23 10 -21 25 30 31 108 92 365 136 570 l18 85 86 3 86 3 -2 -373 c-1 -205 0
-422 2 -483 l4 -110 -69 0 c-61 0 -69 2 -67 18 7 95 11 707 3 690 -14 -35 -75
-291 -110 -463 -17 -85 -36 -176 -41 -202 l-11 -48 -54 0 c-30 0 -54 2 -54 4
0 17 -85 418 -113 536 -44 181 -56 215 -52 145 2 -27 4 -192 6 -365 l4 -315
-69 0 -69 0 4 100 c2 55 3 272 2 483 l-1 383 85 -3 86 -3 42 -190z m2405 165
c30 -14 66 -37 78 -52 13 -16 29 -25 34 -21 7 3 8 1 4 -5 -9 -15 18 -55 29
-44 5 4 5 2 2 -4 -3 -6 2 -34 13 -61 11 -28 24 -100 31 -161 20 -190 -15 -388
-82 -473 -15 -20 -26 -39 -24 -43 3 -3 2 -4 -1 -1 -4 2 -21 -6 -38 -19 -54
-40 -95 -48 -260 -54 l-159 -4 8 48 c9 64 9 792 0 868 l-8 58 159 -4 c140 -4
165 -7 214 -28z m1341 -407 l-3 -432 143 -3 142 -3 0 -45 0 -45 -203 -3 c-112
-1 -207 1 -210 5 -4 5 -3 112 2 240 5 136 5 331 0 470 -5 131 -7 242 -4 246 2
4 33 7 70 5 l66 -3 -3 -432z m1290 -40 c13 -16 12 -17 -3 -4 -10 7 -18 15 -18
17 0 8 8 3 21 -13z m-5827 -647 c19 -8 44 -24 56 -36 18 -18 24 -19 38 -8 15
11 16 11 4 -4 -11 -13 -9 -22 8 -50 39 -64 61 -157 67 -285 l6 -123 -207 0
-206 0 0 -49 c0 -127 49 -270 104 -307 59 -38 141 -30 215 21 28 19 52 35 55
35 2 0 4 -35 3 -77 l-2 -78 -99 -14 c-87 -12 -106 -11 -163 3 -36 9 -70 13
-76 9 -5 -3 -7 -2 -4 4 7 10 -52 60 -66 55 -5 -1 -5 2 -2 8 4 6 0 19 -9 28
-55 62 -96 226 -96 385 0 316 103 497 282 497 32 0 74 -6 92 -14z m666 -55 l0
-68 -59 -6 c-33 -3 -84 -16 -115 -30 -93 -43 -90 -24 -84 -443 l5 -365 -65 3
-64 3 0 480 0 479 66 2 66 2 0 -48 0 -48 59 39 c66 44 122 67 164 68 27 1 27
1 27 -68z m420 58 l50 -11 0 -74 c0 -41 -2 -74 -5 -74 -3 0 -28 16 -56 35 -28
19 -67 37 -87 41 -42 8 -118 -15 -114 -35 1 -7 -2 -10 -7 -7 -14 9 -30 -16
-37 -60 -7 -47 18 -120 37 -108 8 5 9 3 4 -5 -9 -16 103 -133 119 -124 6 3 8
3 5 0 -3 -4 25 -37 62 -75 95 -97 114 -137 113 -237 0 -114 -38 -182 -124
-222 -62 -29 -134 -37 -227 -23 -113 17 -113 17 -113 105 0 41 3 75 6 75 3 0
25 -15 48 -34 52 -43 85 -56 141 -56 89 0 135 50 136 147 1 78 -17 104 -187
259 -117 107 -149 162 -149 259 1 110 52 185 152 221 46 16 164 18 233 3z
m578 -15 c59 -29 102 -78 136 -156 40 -90 51 -161 50 -328 -1 -131 -5 -166
-24 -225 -12 -38 -23 -80 -23 -92 -1 -11 -5 -19 -8 -17 -8 5 -42 -46 -42 -63
0 -7 -2 -11 -5 -9 -2 3 -24 -11 -48 -29 -50 -38 -136 -61 -193 -50 -103 19
-181 98 -228 230 -26 76 -28 88 -28 265 0 164 3 193 22 255 52 164 141 244
274 245 50 0 77 -6 117 -26z m712 11 c15 -8 37 -26 49 -40 45 -58 49 -97 54
-522 l5 -403 -70 0 -70 0 8 78 c13 125 9 598 -5 679 -14 82 -40 123 -77 123
-30 0 -84 -26 -84 -41 0 -6 -4 -8 -9 -5 -12 8 -43 -29 -34 -39 5 -4 3 -5 -4
-2 -6 4 -21 -5 -33 -20 l-23 -28 6 -373 5 -373 -65 3 -65 3 0 480 0 480 66 1
66 2 0 -45 0 -44 43 35 c24 20 59 42 78 50 44 20 122 20 159 1z m596 -4 c23
-10 53 -34 67 -52 51 -68 55 -103 61 -521 l5 -388 -70 0 -69 0 0 37 0 38 -26
-29 c-37 -40 -83 -56 -156 -56 -83 1 -131 32 -173 114 -27 53 -30 68 -30 155
0 79 4 105 23 146 27 58 71 106 127 139 44 26 164 66 199 66 45 0 49 11 37
103 -17 146 -57 188 -154 167 -54 -12 -164 -79 -160 -97 1 -6 -5 -9 -15 -6
-15 3 -17 15 -14 79 3 71 5 76 30 85 110 43 249 51 318 20z m604 8 l50 -11 0
-74 c0 -41 -3 -74 -7 -74 -5 0 -17 7 -27 15 -10 8 -23 12 -29 8 -6 -3 -7 -1
-3 5 9 15 -65 52 -104 52 -77 0 -130 -50 -133 -123 -2 -46 33 -124 53 -119 6
1 9 -2 6 -6 -5 -9 26 -41 160 -162 27 -25 65 -72 84 -105 32 -54 35 -67 34
-135 0 -100 -4 -113 -48 -166 -65 -78 -165 -105 -303 -83 -114 18 -113 16
-113 104 0 41 3 75 8 75 4 0 20 -12 35 -26 63 -59 170 -81 227 -48 51 31 78
107 60 174 -11 40 -74 130 -92 130 -6 0 -5 -7 3 -17 11 -15 10 -15 -8 1 -13
10 -20 22 -18 26 2 4 -19 27 -47 51 -75 65 -105 98 -138 154 -37 64 -45 117
-30 190 10 46 20 66 54 100 24 23 63 49 87 58 52 18 168 21 239 6z m833 -7
c26 -11 27 -14 27 -82 0 -75 -8 -84 -44 -51 -35 32 -99 61 -134 61 -47 0 -100
-27 -117 -61 -17 -32 -19 -86 -5 -124 15 -39 72 -106 86 -101 6 2 11 -3 10
-12 0 -10 6 -16 16 -16 10 1 16 -1 15 -5 -1 -3 33 -40 76 -82 98 -98 127 -155
127 -258 0 -58 -5 -83 -24 -121 -13 -27 -21 -52 -18 -56 4 -4 2 -4 -4 -1 -7 4
-17 1 -23 -7 -6 -8 -35 -24 -64 -37 -43 -19 -67 -23 -142 -22 -49 1 -112 8
-140 15 l-50 14 -3 76 c-3 68 -1 76 17 81 12 3 18 0 16 -7 -6 -15 65 -68 83
-61 7 2 11 1 8 -4 -14 -22 104 -28 144 -8 40 20 70 74 70 125 0 70 -32 124
-123 205 -175 157 -208 202 -215 300 -6 81 12 137 59 183 62 61 107 75 224 70
55 -2 112 -8 128 -14z m539 4 c-3 -5 2 -7 11 -3 9 3 16 3 14 -1 -1 -4 17 -25
40 -46 53 -47 98 -137 119 -236 12 -57 15 -113 11 -235 -4 -140 -7 -169 -30
-234 -15 -41 -38 -88 -51 -106 -14 -18 -22 -36 -18 -40 4 -5 1 -5 -5 -1 -7 4
-13 3 -13 -3 0 -5 -13 -18 -29 -27 -17 -10 -27 -22 -24 -27 3 -6 1 -7 -4 -4
-6 4 -30 0 -54 -9 -73 -25 -183 0 -245 57 -11 11 -24 17 -27 14 -4 -3 -5 -2
-3 1 3 3 -11 34 -29 68 -103 186 -96 561 13 721 15 22 27 47 27 55 1 8 7 14
14 12 8 -2 21 4 30 12 38 34 85 46 173 44 50 -2 84 -7 80 -12z m696 -53 l-3
-68 -60 -7 c-75 -9 -132 -31 -166 -62 -25 -23 -26 -28 -32 -182 -3 -88 -2
-253 3 -369 5 -115 6 -213 4 -217 -3 -4 -33 -8 -67 -8 l-62 0 0 484 0 484 65
-2 65 -2 0 -47 c0 -26 1 -47 2 -47 12 0 90 70 85 76 -4 4 -2 4 5 1 6 -4 31 2
55 12 23 11 58 20 76 20 l33 1 -3 -67z m1083 52 c24 -9 50 -22 59 -30 9 -8 20
-12 25 -8 4 5 5 3 1 -4 -3 -6 3 -26 13 -45 35 -58 39 -115 42 -498 l3 -375
-69 0 -70 0 2 33 2 33 -36 -31 c-46 -40 -72 -50 -138 -50 -93 0 -138 28 -183
115 -51 99 -39 280 24 354 14 17 22 36 18 42 -4 8 -3 9 4 5 6 -4 29 6 51 22
36 26 155 70 234 87 26 5 27 8 27 68 0 73 -22 157 -47 179 -48 42 -154 21
-241 -47 -25 -19 -47 -33 -49 -31 -10 10 -9 127 1 140 35 45 241 71 327 41z
m612 4 l57 -12 0 -73 c0 -74 -7 -87 -30 -59 -7 9 -19 14 -27 11 -8 -3 -11 -1
-8 4 3 5 -13 19 -37 31 -53 27 -133 21 -160 -12 -10 -12 -18 -17 -18 -13 -2
25 -30 -63 -30 -91 0 -45 65 -139 134 -194 147 -116 212 -218 210 -330 -3
-160 -93 -243 -264 -245 -85 0 -189 18 -201 37 -11 16 -8 147 3 147 5 0 28
-16 51 -35 23 -20 47 -33 55 -30 7 2 11 1 8 -4 -14 -22 104 -28 144 -8 41 21
70 74 70 128 0 54 -8 81 -21 73 -5 -3 -6 1 -3 9 9 24 -52 86 -81 82 -13 -1
-22 2 -19 7 3 5 13 7 23 4 9 -4 -2 10 -24 30 -166 151 -205 205 -213 299 -16
188 145 291 381 244z m-7928 -21 c17 -6 38 -18 47 -26 9 -8 21 -11 26 -8 5 3
9 -2 8 -12 0 -10 5 -16 14 -14 8 2 12 1 8 -3 -4 -4 2 -23 12 -44 11 -20 25
-70 31 -111 13 -84 3 -159 -31 -225 -11 -21 -17 -42 -14 -47 3 -5 2 -7 -3 -6
-5 2 -20 -8 -33 -20 -47 -44 -97 -63 -187 -69 l-85 -6 7 -179 7 -179 -68 3
-67 3 -1 478 c-1 263 0 479 1 480 7 8 305 -6 328 -15z m6672 -10 c24 -10 60
-36 80 -56 21 -20 40 -36 43 -35 3 1 6 -6 7 -15 0 -9 14 -51 29 -92 27 -72 28
-83 29 -250 0 -160 -2 -182 -25 -250 -13 -41 -24 -81 -23 -88 0 -7 -2 -11 -5
-8 -8 8 -42 -46 -36 -56 3 -5 2 -7 -3 -6 -10 2 -104 -58 -99 -63 6 -6 -17 -7
-199 -15 l-160 -7 1 484 c1 266 2 484 3 484 1 1 71 -1 157 -3 127 -4 165 -8
201 -24z m-4972 -158 c3 -6 -1 -7 -9 -4 -18 7 -21 14 -7 14 6 0 13 -4 16 -10z
m-2407 -1507 c-2 -66 -7 -98 -15 -101 -10 -3 -13 21 -13 97 0 84 3 101 15 101
13 0 15 -15 13 -97z m482 -4 c0 -90 -2 -100 -17 -97 -16 3 -18 16 -18 93 0
102 1 105 21 105 11 0 14 -20 14 -101z m60 2 c0 -98 0 -99 -24 -97 -17 1 -22
4 -14 13 5 6 9 47 8 90 -2 99 -3 93 15 93 12 0 15 -18 15 -99z m575 0 l0 -93
-40 -4 c-52 -5 -75 16 -75 68 0 48 30 83 66 74 21 -6 24 -3 24 25 0 20 4 29
13 27 8 -3 12 -32 12 -97z m339 65 c-1 -24 2 -27 21 -22 28 7 64 -20 70 -52 6
-35 -14 -81 -38 -87 -12 -3 -35 -3 -52 -1 l-30 3 -3 83 c-2 46 0 90 3 97 9 24
30 8 29 -21z m144 -63 c-2 -77 -6 -98 -18 -101 -12 -2 -15 8 -13 45 1 27 2 72
2 101 1 40 5 52 16 52 13 0 15 -15 13 -97z m1482 -3 c0 -82 -3 -100 -15 -100
-12 0 -15 18 -15 100 0 82 3 100 15 100 12 0 15 -18 15 -100z m550 71 c0 -27
2 -29 38 -27 21 1 39 -3 40 -9 14 -79 13 -94 -7 -114 -22 -22 -89 -26 -103 -6
-10 13 -10 169 -1 178 16 17 33 5 33 -22z m1050 -70 l0 -98 -45 -1 c-56 -1
-75 16 -75 71 0 56 12 71 54 71 33 0 36 3 36 28 0 18 5 28 15 28 12 0 15 -18
15 -99z m190 -2 c0 -86 -2 -100 -16 -97 -8 2 -15 6 -15 11 1 4 1 48 1 97 0 73
3 90 15 90 12 0 15 -18 15 -101z m725 19 c0 -48 4 -74 10 -70 5 3 5 -1 -2 -9
-6 -8 -11 -18 -10 -23 1 -6 -17 -11 -41 -13 -53 -3 -82 21 -82 70 0 46 20 70
59 70 28 0 31 3 31 29 0 23 4 29 18 26 14 -3 17 -15 17 -80z m253 -13 c3 -83
-7 -120 -25 -101 -4 4 -7 42 -6 84 2 115 2 114 16 110 8 -3 13 -33 15 -93z
m1438 81 c33 8 74 -3 74 -21 0 -10 -10 -14 -35 -13 -19 1 -38 -2 -41 -5 -10
-10 14 -34 41 -41 33 -8 48 -38 35 -70 -15 -41 -101 -51 -108 -12 -3 15 0 18
21 12 30 -7 57 1 57 18 0 6 -17 20 -38 31 -35 19 -37 23 -38 70 0 28 1 44 3
38 3 -8 14 -11 29 -7z m454 -85 l0 -100 -58 2 -58 1 -2 58 c-3 51 -1 58 22 73
15 10 33 14 46 10 17 -5 20 -2 20 24 0 21 5 31 15 31 12 0 15 -18 15 -99z
m915 -2 l0 -93 -35 -3 c-48 -3 -68 5 -75 28 -4 10 -10 17 -15 14 -8 -5 1 45
15 77 7 19 46 31 69 22 13 -5 16 1 16 26 0 21 4 30 13 28 8 -3 12 -32 12 -99z
m-8717 64 c29 -40 -2 -93 -55 -93 -18 0 -21 -5 -20 -32 1 -24 -2 -33 -13 -33
-12 0 -16 18 -18 94 l-3 94 48 -7 c27 -3 53 -13 61 -23z m482 13 c0 -21 -21
-31 -30 -15 -5 7 -6 17 -4 21 9 14 34 9 34 -6z m760 -6 c0 -11 -7 -20 -15 -20
-8 0 -15 9 -15 20 0 11 7 20 15 20 8 0 15 -9 15 -20z m3836 -17 c38 -97 33
-95 61 -25 18 45 30 62 44 62 17 0 19 -8 19 -95 0 -78 -3 -95 -15 -95 -12 0
-15 13 -15 58 l-1 57 -23 -55 c-12 -30 -28 -55 -35 -55 -7 0 -21 22 -31 49
-25 65 -27 65 -26 4 1 -41 -2 -53 -14 -53 -12 0 -16 17 -18 79 -2 44 -1 85 2
93 10 25 37 13 52 -24z m1253 24 c39 -20 45 -54 16 -83 -13 -13 -33 -24 -44
-24 -15 0 -20 -8 -23 -32 -2 -21 -8 -33 -18 -33 -12 0 -16 17 -18 79 -2 44 -1
85 2 93 7 16 53 17 85 0z m2249 -4 c-2 -12 -14 -19 -36 -21 -45 -5 -45 -37 1
-37 22 0 32 -5 32 -15 0 -10 -12 -16 -32 -18 -27 -3 -33 -8 -33 -27 0 -20 4
-23 32 -22 25 2 34 -3 36 -16 3 -17 -2 -18 -50 -15 l-53 3 -3 79 c-2 44 -1 85
2 93 4 8 23 13 56 13 44 0 51 -3 48 -17z m202 3 c0 -18 -16 -29 -30 -21 -13 8
-1 35 16 35 8 0 14 -6 14 -14z m-7480 -22 c0 -8 9 -14 21 -14 12 0 19 -5 16
-12 -2 -7 3 -19 12 -26 9 -8 2 -6 -16 3 l-33 16 0 -42 c0 -32 4 -42 20 -46 11
-3 20 -9 20 -14 0 -14 -21 -21 -46 -15 -21 6 -24 12 -24 54 0 26 -6 54 -12 60
-10 10 -10 15 1 21 8 5 11 16 8 24 -4 11 0 13 14 10 10 -3 19 -12 19 -19z
m-900 2 c0 -9 7 -13 18 -11 11 2 19 -3 19 -11 0 -7 -9 -16 -19 -20 -13 -4 -18
-15 -18 -45 0 -32 3 -39 20 -39 11 0 20 -4 20 -9 0 -16 -20 -23 -46 -17 -21 6
-24 12 -24 55 0 31 -5 51 -12 54 -10 3 -10 10 1 30 15 29 41 36 41 13z m2530
-1 c0 -8 9 -15 20 -15 11 0 20 -5 20 -11 0 -6 -9 -13 -20 -16 -16 -4 -20 -14
-20 -44 0 -33 3 -39 21 -39 26 0 20 -24 -8 -28 -27 -4 -53 22 -46 48 3 11 0
26 -6 34 -9 11 -9 15 1 19 7 3 -2 6 -19 6 -34 1 -39 -6 -45 -73 -2 -16 -9 -31
-15 -34 -10 -3 -13 15 -13 68 0 67 1 72 20 67 11 -3 22 -2 25 3 3 4 14 10 25
13 11 3 18 1 14 -4 -3 -5 0 -9 5 -9 6 0 11 7 11 15 0 8 7 15 15 15 8 0 15 -7
15 -15z m5926 3 c4 -7 3 -8 -4 -4 -7 4 -12 2 -12 -3 0 -6 9 -11 20 -11 11 0
20 -5 20 -11 0 -6 -9 -13 -20 -16 -29 -8 -29 -73 0 -80 24 -6 21 -26 -4 -31
-29 -6 -46 18 -46 64 0 24 -4 44 -10 44 -5 0 -10 7 -10 15 0 8 5 15 10 15 6 0
10 7 10 15 0 18 36 20 46 3z m-5619 -5 c-4 -3 3 -11 16 -17 15 -8 23 -22 25
-44 3 -31 3 -32 -39 -32 -36 0 -40 -2 -29 -15 9 -11 22 -14 42 -10 21 5 28 3
28 -8 0 -17 -21 -27 -53 -27 -72 1 -88 101 -23 141 32 19 45 24 33 12z m931 1
c-4 -3 2 -14 12 -24 23 -23 24 -125 0 -125 -11 0 -16 14 -18 53 -3 48 -5 53
-25 50 -18 -2 -23 -11 -27 -51 -3 -26 -8 -47 -12 -47 -5 0 -12 0 -17 0 -5 0
-8 18 -6 40 3 29 1 39 -7 34 -7 -5 -8 -3 -2 7 5 8 9 20 9 28 0 8 19 19 45 26
25 7 47 13 49 14 2 0 2 -2 -1 -5z m1291 -26 c-8 -14 -18 -19 -35 -15 -14 2
-27 1 -29 -3 -7 -11 24 -21 38 -13 7 3 9 3 5 -2 -4 -4 0 -13 9 -20 28 -21 9
-63 -31 -71 -38 -7 -56 0 -56 21 0 11 8 13 29 9 43 -9 48 13 6 30 -34 15 -36
17 -35 74 0 4 23 7 50 6 31 -1 47 3 43 9 -3 6 -1 7 5 3 9 -5 9 -13 1 -28z
m2856 18 c13 3 33 1 44 -6 18 -9 21 -20 21 -76 0 -48 -3 -65 -12 -62 -8 3 -14
26 -16 54 -3 49 -15 66 -39 57 -8 -3 -13 -22 -13 -52 0 -52 -5 -62 -26 -54
-18 7 -19 118 -1 137 6 8 13 10 15 5 2 -5 14 -6 27 -3z m-8141 -9 c14 -10 17
-25 14 -71 l-3 -59 -41 -4 c-26 -2 -45 1 -51 9 -15 19 -21 64 -9 66 78 11 105
32 41 32 -40 0 -46 16 -12 30 31 12 41 12 61 -3z m150 -6 c13 -11 16 -28 14
-70 -3 -50 -5 -56 -25 -57 -17 -1 -20 2 -14 15 7 13 8 40 2 84 -1 4 -10 7 -22
7 -15 0 -19 -5 -15 -16 3 -8 2 -12 -4 -9 -6 4 -10 -12 -10 -39 0 -34 -4 -46
-15 -46 -12 0 -15 14 -15 68 0 38 2 71 4 73 11 10 85 2 100 -10z m158 -56 c-3
-57 -7 -75 -18 -75 -10 0 -14 12 -14 38 0 21 -6 44 -12 51 -10 11 -10 13 0 7
8 -5 12 1 12 18 0 15 7 26 18 29 9 3 17 5 17 6 0 1 -1 -33 -3 -74z m230 63
c15 -12 22 -60 19 -118 -1 -19 -78 -25 -98 -8 -34 28 -4 78 46 78 12 0 21 5
21 10 0 6 -16 10 -35 10 -40 0 -46 16 -12 30 31 12 41 12 59 -2z m116 6 c37
-10 27 -34 -15 -34 l-38 -1 35 -18 c19 -11 38 -18 41 -16 3 2 3 -10 1 -26 -3
-19 -13 -34 -28 -41 -29 -13 -74 -2 -74 18 0 11 5 14 16 10 9 -4 25 -4 36 0
16 5 15 8 -14 28 -41 27 -49 62 -16 75 29 12 28 12 56 5z m197 -14 c8 -8 16
-26 17 -40 3 -23 -1 -25 -41 -30 -38 -4 -42 -7 -29 -18 10 -8 26 -10 42 -6 19
4 26 2 26 -9 0 -32 -68 -37 -95 -7 -17 18 -19 38 -13 100 3 22 8 25 40 25 21
0 44 -7 53 -15z m410 6 c15 -11 19 -27 20 -72 l0 -58 -45 -3 c-45 -3 -70 12
-70 43 0 21 30 44 56 44 13 0 24 5 24 11 0 7 -10 9 -25 7 -27 -6 -58 18 -34
26 8 2 21 7 29 9 23 8 25 8 45 -7z m330 2 c26 -12 42 -48 30 -67 -3 -6 -24
-11 -47 -11 -35 0 -39 -2 -28 -15 9 -11 22 -14 43 -9 24 5 28 3 25 -13 -4 -23
-55 -29 -82 -10 -11 8 -22 33 -26 60 -4 26 -5 45 -3 43 3 -2 13 4 24 15 22 22
29 23 64 7z m143 -2 c1 -2 0 -10 -3 -18 -4 -10 -16 -13 -38 -11 l-32 4 38 -21
c43 -24 51 -62 17 -80 -31 -16 -74 -9 -78 14 -3 15 0 18 20 13 13 -4 30 -2 38
3 11 7 8 11 -16 22 -50 22 -61 62 -21 78 18 8 65 5 75 -4z m179 5 c20 -2 35
-65 23 -95 -5 -15 -8 -31 -6 -35 3 -4 -15 -7 -39 -7 -24 1 -43 -1 -43 -4 2
-30 -5 -50 -17 -50 -12 0 -15 17 -15 93 0 52 2 96 4 98 4 4 64 4 93 0z m127
-1 c24 -9 26 -14 26 -73 l0 -63 -42 -1 c-48 -2 -68 10 -68 41 0 30 18 46 52
46 15 0 28 5 28 10 0 11 -12 13 -47 10 -41 -3 -26 22 24 39 1 1 13 -3 27 -9z
m134 -13 c2 -10 -5 -17 -20 -19 -19 -3 -24 -10 -28 -51 -5 -51 -23 -65 -28
-22 -2 16 -8 23 -15 19 -8 -5 -8 -3 1 7 6 7 12 28 12 47 0 24 4 33 13 29 8 -3
20 -1 28 4 18 11 33 6 37 -14z m103 2 c16 -16 19 -30 17 -71 -3 -50 -3 -51
-38 -54 -48 -4 -68 3 -75 27 -9 27 20 59 52 59 15 0 23 5 20 13 -2 7 -15 11
-30 9 -31 -4 -39 23 -9 31 33 9 42 7 63 -14z m183 15 c28 -11 18 -34 -14 -34
-24 0 -31 -5 -36 -27 -8 -31 19 -57 49 -47 14 5 18 2 15 -13 -5 -29 -62 -30
-82 -1 -29 42 -16 107 24 121 21 8 26 8 44 1z m111 -4 c25 -9 26 -13 23 -72
l-3 -63 -39 -3 c-21 -1 -45 3 -52 9 -16 13 -19 55 -5 63 5 4 8 18 6 32 -2 23
5 31 42 43 1 1 13 -3 28 -9z m333 -12 c6 -6 12 -23 12 -39 0 -27 -3 -29 -40
-29 -22 0 -40 -4 -40 -9 0 -12 37 -24 50 -16 17 11 32 -5 19 -21 -17 -21 -65
-17 -89 8 -60 64 19 160 88 106z m303 12 c5 0 9 -6 9 -14 0 -9 -12 -16 -32
-18 l-33 -3 38 -22 c41 -25 45 -37 20 -65 -17 -19 -59 -24 -82 -9 -22 14 -3
31 29 24 36 -7 41 13 7 26 -31 12 -51 37 -43 56 7 18 45 36 64 29 8 -2 18 -4
23 -4z m123 -2 c4 3 4 -1 1 -9 -3 -9 -1 -29 6 -45 l11 -29 15 43 c15 44 45 58
57 26 3 -8 2 -13 -3 -9 -5 3 -22 -28 -37 -67 -32 -88 -40 -98 -70 -98 -33 0
-39 18 -10 30 31 11 32 24 6 92 -26 68 -26 82 -1 69 10 -6 21 -7 25 -3z m379
-1 c10 -6 18 -27 20 -44 1 -18 6 -33 12 -33 5 0 4 -5 -3 -12 -16 -16 -15 -31
1 -22 9 6 9 5 0 -7 -9 -11 -30 -16 -66 -16 -51 0 -53 1 -55 28 -3 34 21 59 55
59 15 0 23 5 21 12 -3 7 -15 12 -29 13 -32 0 -37 18 -7 27 34 9 33 9 51 -5z
m150 -6 c23 -19 25 -133 2 -125 -10 4 -15 20 -15 49 0 83 -54 81 -56 -2 -1
-34 -5 -48 -15 -48 -17 0 -26 124 -10 134 17 11 78 6 94 -8z m273 4 c12 -8 23
-12 26 -10 2 2 2 -11 0 -30 -4 -34 -6 -35 -46 -35 -36 -1 -39 -2 -23 -14 9 -7
28 -11 41 -9 16 4 25 0 28 -14 4 -15 -2 -18 -32 -21 -55 -4 -82 22 -84 80 -1
26 0 45 3 43 2 -3 13 2 25 10 11 8 25 15 31 15 6 0 20 -7 31 -15z m132 -3 c2
-7 -8 -16 -21 -21 -30 -12 -37 -28 -26 -59 6 -16 6 -21 -2 -17 -6 4 -9 0 -7
-11 2 -11 -4 -20 -14 -22 -16 -3 -18 5 -18 68 0 66 2 72 19 67 10 -2 25 -1 32
4 17 11 31 7 37 -9z m80 12 c37 -10 27 -34 -15 -34 l-38 -1 38 -20 c43 -23 51
-61 17 -79 -30 -16 -74 -9 -78 13 -3 16 1 18 26 12 33 -7 54 10 23 20 -30 9
-54 41 -46 64 5 17 16 24 45 30 3 0 15 -2 28 -5z m350 -21 c6 -9 12 -27 12
-40 0 -21 -5 -23 -47 -23 -36 0 -44 -3 -35 -12 14 -14 82 -18 82 -4 0 5 3 6 7
3 3 -4 -2 -16 -12 -27 -14 -16 -29 -20 -60 -18 -23 2 -42 8 -43 13 -1 6 -5 28
-10 50 -7 35 -5 43 16 63 27 26 67 24 90 -5z m457 2 c43 -42 32 -65 -30 -67
-24 -1 -32 -5 -26 -11 6 -6 24 -10 41 -9 38 1 41 -25 3 -34 -38 -10 -77 15
-81 50 -5 44 6 76 31 86 33 13 36 12 62 -15z m452 1 c6 -6 15 -23 18 -38 7
-28 6 -28 -40 -28 -41 0 -46 -2 -35 -15 13 -16 45 -21 36 -6 -4 5 3 7 14 4 32
-9 20 -37 -17 -41 -43 -4 -73 26 -73 73 0 63 55 92 97 51z m247 8 c11 -10 16
-34 16 -73 l0 -57 -41 -1 c-23 -1 -49 3 -58 10 -18 13 -22 63 -6 65 48 7 75
16 75 24 0 5 -15 8 -32 6 -24 -2 -34 1 -36 14 -5 27 58 37 82 12z m134 1 c11
-10 -13 -25 -41 -25 l-32 -1 38 -20 c43 -23 51 -61 17 -79 -30 -16 -74 -9 -78
13 -3 15 1 18 27 14 44 -7 46 7 6 26 -64 30 -35 96 35 81 14 -3 27 -7 28 -9z
m311 -2 c11 -10 22 -29 23 -43 3 -23 -1 -25 -41 -30 -38 -4 -42 -7 -29 -18 10
-8 26 -10 42 -6 20 5 26 2 26 -10 0 -23 -48 -32 -79 -15 -35 20 -42 88 -12
118 26 26 42 26 70 4z m92 10 c17 10 23 9 35 -7 8 -11 14 -15 14 -9 0 14 39
24 67 17 35 -9 29 -34 -8 -34 -19 0 -28 -4 -24 -11 4 -6 14 -8 23 -4 9 3 13 3
10 -1 -4 -3 2 -14 14 -24 16 -12 19 -22 13 -36 -4 -10 -8 -22 -7 -25 1 -4 -23
-6 -52 -6 -46 1 -53 3 -48 19 4 15 11 17 40 12 27 -5 34 -4 30 7 -3 8 -14 14
-26 13 -11 0 -20 2 -19 5 5 15 -33 52 -50 49 -14 -2 -19 -15 -23 -53 -4 -36
-9 -50 -20 -50 -12 0 -15 14 -16 65 0 36 4 68 10 72 6 4 12 3 14 -2 2 -5 12
-4 23 3z m259 -11 c15 -12 22 -28 21 -52 -1 -56 -4 -69 -12 -64 -4 2 -10 0
-14 -6 -8 -13 -84 -8 -82 5 1 6 -3 9 -8 8 -6 -1 -10 11 -9 25 1 15 3 35 3 45
1 23 37 57 60 57 10 0 29 -8 41 -18z m152 0 c7 -7 13 -38 13 -70 0 -44 -3 -57
-15 -57 -11 0 -16 14 -18 53 -3 47 -5 52 -27 52 -22 0 -24 -5 -27 -52 -2 -39
-7 -53 -18 -53 -11 0 -15 13 -16 56 0 31 -3 63 -6 70 -7 18 96 19 114 1z m132
-2 c10 -10 18 -120 8 -121 -4 0 -22 -2 -40 -5 -44 -5 -72 11 -72 41 0 26 25
45 59 45 12 0 21 4 21 8 0 17 -12 21 -35 12 -17 -7 -25 -5 -29 6 -11 28 60 39
88 14z m117 10 c5 0 9 -7 9 -15 0 -10 -10 -15 -32 -15 -28 -1 -30 -2 -15 -11
9 -5 22 -7 29 -3 6 4 8 3 5 -3 -4 -6 0 -16 8 -23 19 -16 19 -29 -2 -52 -25
-28 -93 -22 -93 9 0 11 8 12 35 7 41 -7 49 11 11 26 -28 10 -50 45 -40 61 9
15 46 29 62 23 8 -2 18 -4 23 -4z m319 -8 c28 -23 31 -83 5 -112 -39 -44 -105
-10 -105 55 0 63 54 94 100 57z m128 -5 c2 -12 -3 -17 -18 -17 -16 0 -20 -4
-16 -16 3 -8 2 -12 -4 -9 -5 3 -10 -14 -12 -37 -2 -28 -8 -44 -18 -46 -12 -2
-15 10 -15 65 0 38 3 70 7 73 3 3 21 5 40 4 22 -1 34 -6 36 -17z m243 13 c16
-9 19 -22 19 -73 l0 -63 -45 -2 c-24 -1 -47 3 -50 8 -4 6 -10 8 -15 5 -8 -5
-4 25 7 55 4 8 6 17 5 20 0 3 15 4 35 2 27 -3 34 -1 31 9 -3 8 -15 13 -30 11
-34 -4 -46 16 -16 27 31 13 36 13 59 1z m127 1 c6 0 12 -8 12 -16 0 -11 -11
-15 -37 -15 l-38 -1 38 -20 c72 -38 31 -113 -47 -83 -28 11 -19 34 12 32 15
-2 28 2 29 7 1 6 -10 9 -25 8 -17 -2 -22 1 -14 6 10 6 10 10 -3 21 -30 25 -6
69 37 65 13 -1 29 -3 36 -4z m194 -21 c29 -36 19 -55 -30 -58 -35 -3 -41 -6
-32 -17 6 -8 23 -11 39 -9 21 4 30 0 33 -13 4 -15 -2 -18 -32 -21 -71 -5 -107
61 -67 122 20 30 63 29 89 -4z m826 3 c17 -23 15 -88 -4 -107 -21 -21 -57 -20
-85 3 -31 25 -30 88 2 114 26 21 66 16 87 -10z m120 4 c2 -10 -5 -17 -20 -19
-20 -3 -24 -10 -28 -53 -4 -36 -9 -50 -20 -50 -12 0 -16 15 -18 67 l-3 67 33
4 c45 5 52 3 56 -16z m132 6 c3 -3 -1 -8 -7 -10 -7 -3 -13 -15 -13 -28 0 -27
-15 -41 -50 -48 -22 -4 -21 -4 7 -6 54 -2 72 -37 40 -78 -13 -18 -92 -16 -107
2 -7 9 -9 23 -4 37 4 13 8 26 9 30 0 3 3 10 7 13 4 4 3 16 -3 27 -14 25 -2 57
24 68 22 8 87 3 97 -7z m-8070 -63 c0 -54 -3 -70 -14 -70 -19 0 -22 10 -18 80
3 43 8 60 18 60 11 0 14 -16 14 -70z m7540 6 c0 -60 -11 -88 -28 -71 -4 3 -7
35 -7 71 -1 55 2 64 17 64 15 0 18 -9 18 -64z m148 -55 c-5 -24 -38 -27 -38
-3 0 10 3 21 6 25 11 11 35 -5 32 -22z"/>
<path d="M5576 4076 c-40 -42 -65 -118 -73 -218 l-6 -78 141 0 140 0 -5 63
c-10 134 -35 212 -81 247 -38 31 -79 26 -116 -14z"/>
<path d="M7062 3732 c-39 -8 -60 -17 -56 -24 5 -7 2 -8 -5 -4 -16 11 -93 -43
-87 -61 3 -7 0 -12 -5 -10 -22 4 -40 -76 -37 -158 2 -64 8 -86 26 -113 13 -18
28 -30 33 -26 5 3 8 0 7 -8 -2 -9 10 -13 46 -12 45 0 52 4 91 48 42 45 44 50
50 129 3 45 5 121 3 168 l-3 85 -63 -14z"/>
<path d="M3488 4090 c-47 -36 -88 -164 -88 -273 l0 -37 140 0 141 0 -6 63 c-3
34 -13 93 -22 130 -27 117 -100 169 -165 117z m22 -10 c-8 -5 -19 -10 -25 -10
-5 0 -3 5 5 10 8 5 20 10 25 10 6 0 3 -5 -5 -10z"/>
<path d="M4847 3901 c-4 -104 -4 -277 0 -385 l6 -196 64 0 c67 0 139 22 128
40 -4 6 -1 9 7 8 21 -5 66 100 79 182 7 46 9 126 5 205 -6 140 -13 188 -27
179 -5 -3 -6 1 -4 9 8 19 -19 78 -47 104 -34 32 -71 43 -142 43 l-63 0 -6
-189z"/>
<path d="M1736 2967 c-20 -16 -27 -28 -21 -37 5 -8 4 -11 -2 -7 -19 12 -48
-85 -59 -195 l-7 -68 143 0 142 0 -7 73 c-4 39 -11 92 -16 117 -12 54 -47 113
-61 104 -7 -4 -8 -2 -4 4 8 13 -24 32 -56 32 -13 0 -36 -11 -52 -23z"/>
<path d="M3393 2975 c-92 -39 -141 -204 -130 -445 8 -187 49 -300 120 -334 91
-43 170 30 203 185 22 104 22 312 -1 409 -21 90 -35 118 -75 156 -36 35 -78
45 -117 29z"/>
<path d="M4745 2595 c-109 -44 -152 -118 -143 -245 5 -66 28 -125 57 -147 23
-18 83 -16 111 4 38 27 70 67 65 81 -3 7 -1 11 4 8 14 -9 21 50 21 190 l0 134
-27 0 c-16 0 -55 -11 -88 -25z"/>
<path d="M6646 2943 c-26 -26 -43 -57 -59 -107 -19 -63 -22 -93 -22 -256 0
-196 9 -248 57 -328 60 -98 168 -90 222 16 80 158 71 567 -15 653 -10 10 -16
19 -11 19 4 0 -6 9 -23 20 -18 12 -47 20 -71 20 -34 0 -47 -6 -78 -37z"/>
<path d="M8560 2609 c0 -5 -5 -7 -10 -4 -15 9 -96 -32 -127 -66 -38 -40 -51
-82 -52 -167 -1 -79 16 -133 51 -163 43 -38 120 -15 171 53 24 31 26 43 33
196 l7 162 -37 0 c-20 0 -36 -5 -36 -11z"/>
<path d="M1097 2903 c-4 -38 -7 -132 -7 -209 l0 -142 63 2 c119 3 164 71 155
235 -8 140 -40 181 -144 181 l-61 0 -6 -67z"/>
<path d="M7736 2920 c-12 -87 -6 -709 7 -717 19 -11 130 -2 161 14 40 21 61
48 88 113 21 51 23 71 23 255 0 192 -1 202 -26 260 -14 33 -31 59 -37 58 -7
-2 -11 2 -9 9 1 6 -13 22 -32 35 -27 18 -47 23 -101 23 l-67 0 -7 -50z"/>
<path d="M1627 1373 c-13 -12 -7 -50 9 -63 22 -19 49 9 40 44 -6 25 -33 35
-49 19z m30 -25 c-3 -8 -6 -5 -6 6 -1 11 2 17 5 13 3 -3 4 -12 1 -19z"/>
<path d="M2052 1343 c2 -30 7 -38 23 -38 16 0 21 8 23 38 3 34 1 37 -23 37
-24 0 -26 -3 -23 -37z"/>
<path d="M4220 1345 c0 -41 23 -56 47 -32 24 24 9 67 -22 67 -22 0 -25 -4 -25
-35z"/>
<path d="M5187 1373 c-12 -11 -8 -50 6 -62 23 -18 50 9 42 42 -7 25 -32 36
-48 20z"/>
<path d="M6098 1356 c-6 -32 11 -64 23 -45 7 11 9 11 9 1 0 -7 5 -10 10 -7 6
3 10 22 10 41 0 29 -3 34 -24 34 -17 0 -25 -7 -28 -24z"/>
<path d="M8247 1373 c-18 -18 1 -73 25 -73 14 0 29 40 23 60 -6 19 -35 27 -48
13z"/>
<path d="M9164 1366 c-10 -26 0 -61 19 -64 19 -4 37 31 29 60 -5 21 -40 24
-48 4z"/>
<path d="M450 1394 c0 -21 4 -25 23 -22 14 2 23 11 25 26 3 18 -1 22 -22 22
-21 0 -26 -5 -26 -26z"/>
<path d="M6810 1395 c0 -28 21 -33 40 -10 15 18 5 35 -21 35 -14 0 -19 -7 -19
-25z"/>
<path d="M3730 1370 c0 -5 9 -10 20 -10 11 0 20 5 20 10 0 6 -9 10 -20 10 -11
0 -20 -4 -20 -10z"/>
<path d="M668 1332 c-21 -4 -24 -32 -4 -32 8 0 17 7 20 16 8 20 6 21 -16 16z"/>
<path d="M1201 1329 c-19 -7 -22 -12 -13 -21 9 -9 16 -8 29 5 21 21 15 27 -16
16z"/>
<path d="M1495 1370 c-4 -6 5 -10 19 -10 14 0 26 5 26 10 0 6 -9 10 -19 10
-11 0 -23 -4 -26 -10z"/>
<path d="M1928 1332 c-22 -4 -24 -32 -3 -32 9 0 18 7 22 15 7 19 3 22 -19 17z"/>
<path d="M2250 1374 c-10 -12 -8 -14 14 -12 28 3 34 13 12 21 -8 3 -20 -1 -26
-9z"/>
<path d="M2559 1373 c0 -4 -2 -17 -4 -28 -5 -25 11 -44 33 -41 12 2 17 13 17
37 0 28 -4 35 -22 37 -13 2 -23 0 -24 -5z"/>
<path d="M2713 1332 c-26 -4 -30 -17 -9 -25 8 -3 20 1 27 9 14 18 11 21 -18
16z"/>
<path d="M2920 1314 c0 -9 7 -14 17 -12 25 5 28 28 4 28 -12 0 -21 -6 -21 -16z"/>
<path d="M3215 1370 c-4 -6 7 -10 24 -10 17 0 31 5 31 10 0 6 -11 10 -24 10
-14 0 -28 -4 -31 -10z"/>
<path d="M3241 1329 c-19 -7 -22 -12 -13 -21 9 -9 16 -8 29 5 21 21 15 27 -16
16z"/>
<path d="M3540 1371 c0 -6 9 -9 20 -8 11 1 20 5 20 9 0 4 -9 8 -20 8 -11 0
-20 -4 -20 -9z"/>
<path d="M4391 1333 c-1 -7 -7 -10 -15 -7 -8 3 -17 1 -21 -5 -9 -15 24 -26 37
-13 6 6 8 16 5 24 -4 9 -6 9 -6 1z"/>
<path d="M4786 1372 c-2 -4 7 -9 20 -10 15 -1 22 2 19 8 -7 12 -32 13 -39 2z"/>
<path d="M5330 1370 c0 -5 9 -10 20 -10 11 0 20 5 20 10 0 6 -9 10 -20 10 -11
0 -20 -4 -20 -10z"/>
<path d="M5800 1374 c-10 -12 -8 -14 14 -14 28 0 35 14 12 23 -8 3 -20 -1 -26
-9z"/>
<path d="M6251 1376 c-9 -11 -6 -13 14 -13 27 0 34 12 11 20 -8 3 -19 0 -25
-7z"/>
<path d="M6511 1329 c-19 -7 -22 -12 -13 -21 9 -9 16 -8 29 5 21 21 15 27 -16
16z"/>
<path d="M6946 1371 c-3 -5 6 -8 19 -8 14 0 25 3 25 8 0 5 -9 9 -19 9 -11 0
-22 -4 -25 -9z"/>
<path d="M7287 1374 c-12 -12 -8 -51 7 -63 24 -20 47 -2 44 33 -2 22 -9 32
-23 34 -12 2 -24 0 -28 -4z"/>
<path d="M7601 1333 c-1 -7 -7 -10 -15 -7 -8 3 -17 1 -21 -5 -9 -15 24 -26 37
-13 6 6 8 16 5 24 -4 9 -6 9 -6 1z"/>
<path d="M8007 1374 c-12 -12 -8 -51 7 -63 24 -20 47 -2 44 33 -2 22 -9 32
-23 34 -12 2 -24 0 -28 -4z"/>
<path d="M8385 1320 c-8 -12 20 -24 35 -15 5 3 10 10 10 16 0 12 -37 12 -45
-1z"/>
<path d="M8695 1370 c-4 -6 5 -9 19 -8 15 1 26 6 26 10 0 12 -38 10 -45 -2z"/>
<path d="M9517 1373 c-13 -12 -7 -50 9 -63 22 -19 49 9 40 44 -6 25 -33 35
-49 19z"/>
<path d="M9757 1384 c-14 -15 -6 -34 14 -34 14 0 19 5 17 17 -3 18 -20 27 -31
17z"/>
<path d="M9746 1272 c-14 -13 -4 -22 24 -22 36 0 41 24 6 26 -14 1 -27 -1 -30
-4z"/>
</g>
</svg>
