<?xml version="1.0" standalone="no"?>
<!DOCTYPE svg PUBLIC "-//W3C//DTD SVG 20010904//EN"
 "http://www.w3.org/TR/2001/REC-SVG-20010904/DTD/svg10.dtd">
<svg version="1.0" xmlns="http://www.w3.org/2000/svg"
 width="512.000000pt" height="512.000000pt" viewBox="0 0 512.000000 512.000000"
 preserveAspectRatio="xMidYMid meet">

<g transform="translate(0.000000,512.000000) scale(0.100000,-0.100000)"
fill="#000000" stroke="none">
<path d="M392 4824 c-311 -222 -322 -233 -308 -288 8 -33 587 -448 633 -454
24 -3 38 2 57 22 24 23 26 32 26 120 l0 96 33 -7 c106 -20 216 -88 281 -173
39 -51 69 -67 109 -57 12 4 84 69 160 145 163 165 164 168 88 259 -145 175
-364 288 -598 309 l-73 7 0 94 c0 86 -2 96 -25 118 -46 47 -58 41 -383 -191z
m275 -163 c16 -14 48 -19 135 -24 62 -4 140 -13 173 -22 90 -23 232 -98 298
-156 l58 -52 -62 -63 -62 -63 -52 47 c-100 92 -257 152 -395 152 -93 0 -113
-17 -120 -98 l-5 -61 -160 115 c-88 63 -160 119 -160 124 0 5 72 61 160 124
l160 115 5 -61 c4 -45 10 -64 27 -77z"/>
<path d="M2590 5026 c-189 -28 -342 -76 -515 -164 -133 -67 -216 -145 -263
-244 -31 -65 -52 -146 -52 -198 0 -24 -5 -31 -27 -36 -38 -9 -101 -42 -141
-73 -19 -14 -110 -132 -203 -262 -124 -173 -181 -244 -212 -264 -65 -44 -197
-182 -255 -269 -124 -185 -187 -374 -199 -596 l-5 -105 -293 -661 c-161 -363
-304 -694 -317 -735 -33 -106 -33 -291 1 -399 68 -221 225 -399 426 -483 91
-38 118 -43 410 -82 360 -48 332 -41 339 -75 3 -16 16 -36 28 -43 13 -9 123
-29 248 -46 124 -17 237 -34 252 -37 28 -6 28 -6 28 -90 l0 -84 1601 0 1600 0
-4 368 c-4 410 -5 420 -78 568 -71 145 -197 271 -344 343 -91 45 -761 244
-796 237 -25 -5 -33 0 -59 35 -40 55 -70 140 -76 213 l-6 61 76 58 c135 103
255 264 327 437 17 41 36 78 42 81 5 4 28 10 50 13 59 10 151 62 198 113 22
24 55 74 72 111 29 61 32 76 32 162 0 83 -4 103 -28 154 -15 33 -43 79 -63
103 l-35 42 15 163 c22 232 36 514 36 727 0 171 2 188 25 253 37 103 55 224
55 375 0 129 -1 135 -25 158 -45 45 -77 35 -167 -52 l-80 -78 -81 1 c-94 2
-150 19 -312 92 -209 95 -435 162 -665 197 -147 22 -441 28 -560 11z m-45
-562 c9 -10 15 -24 12 -33 -3 -12 -293 -483 -374 -607 -13 -21 -10 -24 52 -63
36 -23 70 -39 74 -36 5 2 59 86 121 185 62 99 117 180 122 180 24 0 68 -44 79
-78 9 -30 8 -45 -4 -72 -8 -19 -133 -222 -279 -450 -145 -228 -281 -446 -302
-485 -125 -232 -350 -424 -609 -520 -27 -10 -55 -29 -64 -41 -31 -48 -493
-1140 -493 -1167 0 -16 10 -38 25 -52 24 -25 27 -25 200 -25 l175 0 0 -315 0
-315 -22 5 c-13 3 -144 21 -293 41 -149 19 -297 45 -330 56 -288 96 -456 418
-369 708 9 30 150 356 314 725 l297 670 6 120 c16 308 143 559 376 747 74 59
102 93 247 295 93 131 178 240 200 256 35 26 106 52 124 45 5 -2 -18 -47 -51
-101 -32 -54 -59 -102 -59 -107 0 -10 112 -80 127 -80 6 0 50 66 98 148 131
219 150 246 195 271 82 46 77 29 -71 -237 -77 -140 -139 -255 -137 -256 2 -2
33 -19 70 -40 l67 -37 14 23 c8 13 86 151 172 308 87 157 167 296 179 309 37
41 84 52 111 25z m1398 -711 c8 -21 23 -74 33 -118 17 -72 19 -126 19 -520 0
-423 -1 -443 -22 -528 -172 -674 -966 -913 -1452 -437 -129 126 -219 287 -257
460 -8 36 -17 139 -20 230 l-6 165 130 205 c335 531 317 505 348 504 16 0 90
-8 164 -17 157 -20 554 -23 676 -6 96 13 244 51 304 78 62 27 66 26 83 -16z
m278 -686 c24 -18 54 -54 68 -82 52 -100 23 -223 -68 -292 -23 -18 -48 -33
-54 -33 -9 0 -11 57 -9 220 1 121 7 220 12 220 4 0 28 -15 51 -33z m-2139
-369 c4 -41 -6 -47 -37 -25 -17 13 -17 15 6 46 25 35 26 35 31 -21z m-120
-163 c35 -19 86 -39 114 -45 l50 -11 32 -77 c71 -173 188 -330 326 -437 l78
-60 -6 -61 c-6 -74 -36 -158 -77 -214 -26 -36 -34 -41 -57 -35 -18 3 -214 -37
-550 -115 l-523 -121 -133 3 -133 3 207 484 208 485 86 36 c82 36 269 152 295
184 8 9 15 16 17 16 2 0 32 -16 66 -35z m1056 -795 c134 -16 271 -1 405 44
l98 32 5 -25 c26 -117 53 -184 111 -264 18 -26 31 -52 28 -57 -13 -22 -160
-103 -234 -130 -221 -81 -446 -76 -662 15 -64 27 -199 109 -199 121 0 3 14 23
30 44 40 51 86 150 106 230 l16 65 96 -32 c57 -18 140 -37 200 -43z"/>
<path d="M1622 3819 c-26 -13 -55 -39 -70 -62 -25 -37 -27 -49 -26 -136 0 -75
6 -112 25 -168 l25 -73 -69 -35 c-111 -57 -196 -130 -285 -246 -11 -14 -4 -22
51 -58 35 -22 68 -41 73 -41 5 0 20 17 34 37 30 44 126 126 181 153 l39 20 0
-125 0 -125 80 0 80 0 0 204 0 204 -31 78 c-17 42 -36 106 -42 141 -9 56 -8
66 7 81 16 16 19 15 42 -13 99 -120 154 -238 175 -373 l12 -82 80 0 80 0 -6
68 c-3 38 -13 97 -22 133 -37 147 -176 368 -260 416 -52 29 -116 30 -173 2z"/>
<path d="M2643 2501 c16 -147 121 -299 252 -366 194 -98 412 -64 563 86 83 83
142 210 142 307 l0 32 -79 0 -79 0 -7 -42 c-17 -106 -94 -207 -189 -249 -75
-33 -182 -32 -256 2 -98 46 -168 139 -185 247 l-7 42 -80 0 -81 0 6 -59z"/>
</g>
</svg>
