<?xml version="1.0" standalone="no"?>
<!DOCTYPE svg PUBLIC "-//W3C//DTD SVG 20010904//EN"
 "http://www.w3.org/TR/2001/REC-SVG-20010904/DTD/svg10.dtd">
<svg version="1.0" xmlns="http://www.w3.org/2000/svg"
 width="512.000000pt" height="512.000000pt" viewBox="0 0 512.000000 512.000000"
 preserveAspectRatio="xMidYMid meet">

<g transform="translate(0.000000,512.000000) scale(0.100000,-0.100000)"
fill="#000000" stroke="none">
<path d="M2459 4908 c-35 -74 -124 -162 -201 -198 -129 -61 -350 -83 -537 -56
-121 18 -230 50 -371 110 -101 42 -170 47 -253 16 -102 -38 -170 -117 -203
-236 l-17 -61 -86 -5 c-269 -16 -514 -205 -597 -461 -34 -105 -42 -242 -21
-342 8 -38 77 -233 153 -431 l139 -362 61 -4 c99 -6 130 -34 209 -187 l64
-126 1 330 c0 435 26 728 70 814 27 53 84 99 148 117 62 18 81 16 242 -31 295
-87 543 -117 905 -113 l240 3 67 89 c152 203 248 484 248 726 0 164 -79 334
-197 428 l-40 31 -24 -51z"/>
<path d="M318 1198 l-238 -80 0 -519 0 -519 1600 0 1600 0 0 400 0 399 -157
50 c-87 27 -375 117 -640 200 l-481 151 -86 -54 c-402 -253 -917 -243 -1314
25 -24 16 -44 29 -45 28 -1 0 -109 -37 -239 -81z"/>
</g>
</svg>
