<?xml version="1.0" standalone="no"?>
<!DOCTYPE svg PUBLIC "-//W3C//DTD SVG 20010904//EN"
 "http://www.w3.org/TR/2001/REC-SVG-20010904/DTD/svg10.dtd">
<svg version="1.0" xmlns="http://www.w3.org/2000/svg"
 width="512.000000pt" height="512.000000pt" viewBox="0 0 512.000000 512.000000"
 preserveAspectRatio="xMidYMid meet">

<g transform="translate(0.000000,512.000000) scale(0.100000,-0.100000)"
fill="#000000" stroke="none">
<path d="M283 4625 c-104 -32 -195 -115 -247 -224 l-31 -66 -3 -1419 c-3
-1547 -5 -1482 53 -1581 54 -91 177 -179 269 -191 24 -4 49 -10 56 -14 8 -5
-16 -56 -84 -173 -103 -177 -120 -228 -105 -299 26 -113 107 -178 224 -178 64
0 115 22 159 69 16 17 100 153 187 303 l157 273 1642 0 1642 0 158 -275 c87
-150 171 -287 186 -302 42 -45 96 -68 159 -68 117 0 198 65 224 178 15 71 -3
122 -105 298 -52 91 -93 168 -90 171 3 3 26 9 52 14 109 20 224 101 279 194
54 92 55 111 55 732 l0 572 -22 24 c-33 35 -70 41 -101 17 l-26 -21 -3 -587
c-3 -649 0 -618 -69 -697 -19 -21 -56 -49 -84 -61 l-50 -24 -2101 0 -2100 0
-31 32 c-27 29 -63 87 -63 102 0 3 963 7 2141 8 l2141 3 34 37 34 38 0 1379 0
1378 -22 28 c-45 57 -2 55 -1086 55 -996 0 -999 0 -1026 -21 -32 -25 -35 -75
-7 -110 l19 -24 986 -3 986 -2 0 -575 0 -575 -642 0 c-604 0 -645 -2 -683 -19
-46 -21 -79 -54 -94 -94 -7 -19 -11 -243 -11 -683 l0 -654 -150 0 -150 0 0
129 c0 156 -10 215 -54 306 -40 85 -105 159 -180 204 -54 32 -456 193 -516
206 -28 6 -30 10 -30 52 0 39 6 52 45 96 100 115 135 219 135 407 l0 127 37
24 c68 45 73 67 73 302 0 226 -5 255 -58 310 -35 37 -77 59 -126 66 -36 6 -41
10 -54 50 -18 54 -74 112 -127 130 -54 19 -494 27 -596 12 -136 -21 -240 -98
-297 -219 -26 -56 -27 -61 -30 -289 -3 -216 -2 -234 17 -271 24 -46 83 -99
121 -107 l27 -6 6 -143 c8 -199 48 -308 151 -405 32 -31 36 -41 36 -83 0 -27
-5 -48 -11 -48 -16 0 -442 -166 -497 -194 -68 -34 -150 -112 -192 -182 -52
-87 -69 -165 -69 -331 l-1 -143 -150 0 -150 0 0 1300 0 1300 986 2 986 3 19
24 c28 35 25 85 -7 110 -27 21 -31 21 -995 21 -533 0 -969 4 -969 8 0 13 55
96 77 115 19 16 128 17 2129 15 l2109 -3 46 -27 c53 -31 92 -73 117 -127 15
-32 17 -104 22 -724 5 -674 5 -689 25 -704 27 -19 85 -10 108 18 17 21 17 63
15 718 l-3 696 -32 67 c-42 90 -110 160 -192 201 l-66 32 -2250 2 c-1849 1
-2258 -1 -2292 -12z m1764 -780 c12 -9 25 -32 29 -51 12 -67 80 -124 149 -124
22 0 43 -8 55 -20 19 -19 20 -33 20 -200 0 -162 -2 -180 -17 -180 -28 0 -63
41 -63 73 0 34 -48 87 -79 87 -23 0 -71 -20 -71 -30 0 -3 -17 -26 -37 -50 -66
-77 -78 -80 -405 -80 -247 0 -289 2 -302 16 -13 13 -16 45 -16 193 0 203 11
258 62 310 66 68 82 71 383 71 227 0 274 -2 292 -15z m105 -677 l40 -33 -4
-145 c-4 -133 -7 -150 -32 -207 -33 -73 -103 -143 -174 -176 -38 -18 -66 -22
-142 -22 -82 0 -103 4 -151 26 -72 34 -134 96 -168 168 -24 51 -26 69 -29 199
l-3 142 218 0 c237 0 287 8 353 54 19 14 39 25 43 26 5 0 26 -15 49 -32z
m2518 -938 l0 -650 -95 0 -95 0 0 100 c0 178 -35 276 -134 376 -34 34 -70 66
-81 72 -18 10 -19 11 -3 29 52 57 74 184 47 273 -18 59 -78 130 -139 164 -50
28 -63 31 -140 31 -68 0 -93 -5 -126 -22 -67 -36 -101 -70 -133 -135 -48 -95
-42 -210 15 -293 24 -36 25 -39 7 -48 -10 -5 -45 -37 -79 -71 -99 -100 -134
-200 -134 -383 l0 -93 -95 0 -95 0 0 643 c0 354 3 647 7 650 3 4 291 7 640 7
l633 0 0 -650z m-557 224 c38 -28 57 -67 57 -116 0 -107 -98 -172 -194 -129
-63 27 -88 70 -83 138 4 56 20 82 72 115 37 24 110 20 148 -8z m-2278 -19 c55
0 117 4 138 8 l37 8 0 -45 c0 -41 -4 -48 -54 -90 -50 -43 -57 -46 -110 -46
-55 0 -60 2 -117 51 -53 47 -59 56 -59 91 l0 40 33 -9 c17 -4 77 -8 132 -8z
m-236 -202 c31 -26 57 -48 59 -49 6 -3 -53 -83 -61 -84 -5 0 -47 32 -94 72
l-86 72 39 17 c61 27 82 23 143 -28z m629 28 l44 -17 -86 -72 c-46 -40 -88
-72 -93 -72 -9 0 -53 65 -53 77 -1 16 106 102 125 102 11 0 40 -8 63 -18z
m-837 -192 c136 -113 174 -139 207 -139 12 0 25 -13 36 -38 17 -37 17 -43 -4
-153 -12 -63 -24 -124 -27 -136 l-5 -23 -345 0 -345 0 4 168 c3 158 5 170 30
217 43 81 102 131 209 175 52 22 97 40 101 40 3 0 66 -50 139 -111z m1140 75
c115 -47 184 -106 224 -196 28 -60 29 -70 30 -213 l0 -150 -346 -3 -346 -2
-27 136 c-27 133 -27 138 -10 176 11 25 24 38 36 38 32 0 68 24 207 139 74 61
136 111 138 111 1 0 44 -16 94 -36z m-606 -76 l27 -41 -21 -44 -21 -43 -65 0
-66 0 -20 45 -20 44 28 40 c26 38 31 40 79 41 49 0 52 -2 79 -42z m2232 -56
c65 -34 110 -78 140 -140 25 -52 28 -66 28 -172 l0 -115 -292 -3 -293 -2 0
118 c0 113 2 122 31 180 54 110 150 165 274 159 46 -3 84 -11 112 -25z m-2244
-316 c9 -46 17 -89 17 -95 0 -7 -29 -11 -86 -11 l-86 0 6 30 c3 17 11 59 18
95 l11 65 51 0 51 0 18 -84z"/>
</g>
</svg>
